# xmcd CD database file
#
# Track frame offsets:
#	150
#	26477
#	42382
#	61335
#	77187
#	92673
#	111079
#	128886
#	153464
#	171576
#	187483
#	202706
#	218837
#	239879
#	262303
#
# Disc length: 3735 seconds
#
# Revision: 0
# Processed by: cddbd v1.5.2PL0 Copyright (c) Steve Scherf et al.
# Submitted via: CdAid (MTCDDB.DLL V2003.07.15)
#
DISCID=e40e950f
DTITLE=Various Artist - Mixed Country Volume 4 Disk2
DYEAR=2006
DGENRE=Country
TTITLE0=Martina McBride - God's Will
TTITLE1=Mongumery Gentry - If You Ever Stop Loving Me
TTITLE2=Montgomery Gentry - Gone
TTITLE3=Phil Vassar - In A Real Love
TTITLE4=Rascal Flats - Feels Like Today
TTITLE5=Rascal Flats - Mayberry
TTITLE6=Sara Evans - Suds In The Bucket
TTITLE7=Sara Evans - Tonight
TTITLE8=Shania Twain - Don't
TTITLE9=Shania Twain-Billy Currington - Party For Two
TTITLE10=Tanya Tucker - A Memory Like I'm Gonna Be
TTITLE11=Terri Clark - Girls Lie Too
TTITLE12=Tim McGraw - Back When
TTITLE13=Tim McGraw - Live Like You Were Dying
TTITLE14=Toby Keith - Whiskey Girl
EXTD=ID3G:   2 YEAR: 2006
EXTT0=
EXTT1=
EXTT2=
EXTT3=
EXTT4=
EXTT5=
EXTT6=
EXTT7=
EXTT8=
EXTT9=
EXTT10=
EXTT11=
EXTT12=
EXTT13=
EXTT14=
PLAYORDER=
